<svg width="112" height="78" viewBox="0 0 112 78" fill="none" xmlns="http://www.w3.org/2000/svg">
<path d="M8.23295 39.8011V51H1.98153V31.3636H7.92614V34.9688H8.14347C8.57813 33.767 9.3196 32.8253 10.3679 32.1435C11.4162 31.4531 12.6648 31.108 14.1136 31.108C15.4943 31.108 16.6918 31.419 17.706 32.0412C18.7287 32.6548 19.5213 33.5156 20.0838 34.6236C20.6548 35.723 20.9361 37.0099 20.9276 38.4844V51H14.6761V39.7116C14.6847 38.6207 14.4077 37.7685 13.8452 37.1548C13.2912 36.5412 12.5199 36.2344 11.5312 36.2344C10.875 36.2344 10.2955 36.3793 9.79261 36.669C9.2983 36.9503 8.91477 37.3551 8.64205 37.8835C8.37784 38.4119 8.24148 39.0511 8.23295 39.8011ZM33.9769 51.3707C31.9229 51.3707 30.1502 50.9659 28.6587 50.1562C27.1758 49.3381 26.0337 48.1747 25.2326 46.6662C24.44 45.1491 24.0437 43.3466 24.0437 41.2585C24.0437 39.2301 24.4442 37.4574 25.2454 35.9403C26.0465 34.4148 27.1758 33.2301 28.6332 32.3864C30.0906 31.5341 31.8079 31.108 33.7852 31.108C35.1829 31.108 36.4613 31.3253 37.6204 31.7599C38.7795 32.1946 39.7809 32.8381 40.6246 33.6903C41.4684 34.5426 42.1246 35.5952 42.5934 36.848C43.0621 38.0923 43.2965 39.5199 43.2965 41.1307V42.6903H26.2298V39.0597H37.4798C37.4712 38.3949 37.3136 37.8026 37.0067 37.2827C36.6999 36.7628 36.2781 36.358 35.7411 36.0682C35.2127 35.7699 34.6033 35.6207 33.913 35.6207C33.2141 35.6207 32.5877 35.7784 32.0337 36.0938C31.4798 36.4006 31.0408 36.8224 30.717 37.3594C30.3931 37.8878 30.2227 38.4886 30.2056 39.1619V42.8565C30.2056 43.6577 30.3633 44.3608 30.6786 44.9659C30.994 45.5625 31.4414 46.027 32.021 46.3594C32.6005 46.6918 33.2908 46.858 34.092 46.858C34.646 46.858 35.1488 46.7812 35.6005 46.6278C36.0522 46.4744 36.44 46.2486 36.7639 45.9503C37.0877 45.652 37.3306 45.2855 37.4925 44.8509L43.2326 45.017C42.994 46.304 42.4698 47.4247 41.6602 48.3793C40.859 49.3253 39.8065 50.0625 38.5025 50.5909C37.1985 51.1108 35.69 51.3707 33.9769 51.3707ZM82.3615 42.5241V31.3636H88.6001V51H82.6428V47.3438H82.4382C82.0036 48.5455 81.2621 49.5 80.2138 50.2074C79.174 50.9062 77.9169 51.2557 76.4425 51.2557C75.1044 51.2557 73.9283 50.9489 72.9141 50.3352C71.8999 49.7216 71.1115 48.8651 70.549 47.7656C69.9865 46.6577 69.701 45.3622 69.6925 43.8793V31.3636H75.9439V42.652C75.9524 43.7173 76.2337 44.5568 76.7876 45.1705C77.3416 45.7841 78.0959 46.0909 79.0504 46.0909C79.6726 46.0909 80.2308 45.9545 80.7251 45.6818C81.228 45.4006 81.6243 44.9957 81.9141 44.4673C82.2124 43.9304 82.3615 43.2827 82.3615 42.5241ZM109.723 37.3594L103.983 37.5128C103.923 37.1037 103.761 36.7415 103.497 36.4261C103.233 36.1023 102.887 35.8509 102.461 35.6719C102.044 35.4844 101.558 35.3906 101.004 35.3906C100.279 35.3906 99.6616 35.5355 99.1502 35.8253C98.6474 36.1151 98.4002 36.5071 98.4087 37.0014C98.4002 37.3849 98.5536 37.7173 98.869 37.9986C99.1928 38.2798 99.7681 38.5057 100.595 38.6761L104.379 39.392C106.339 39.767 107.797 40.3892 108.751 41.2585C109.714 42.1278 110.2 43.2784 110.208 44.7102C110.2 46.0568 109.799 47.2287 109.007 48.2259C108.223 49.223 107.149 49.9986 105.785 50.5526C104.422 51.098 102.862 51.3707 101.106 51.3707C98.3022 51.3707 96.0906 50.7955 94.4712 49.6449C92.8604 48.4858 91.94 46.9347 91.7099 44.9915L97.8846 44.8381C98.021 45.554 98.3746 46.0994 98.9457 46.4744C99.5167 46.8494 100.245 47.0369 101.132 47.0369C101.933 47.0369 102.585 46.8878 103.088 46.5895C103.591 46.2912 103.846 45.8949 103.855 45.4006C103.846 44.9574 103.65 44.6037 103.267 44.3395C102.883 44.0668 102.282 43.8537 101.464 43.7003L98.038 43.0483C96.0692 42.6903 94.6033 42.0298 93.6403 41.0668C92.6772 40.0952 92.1999 38.8594 92.2085 37.3594C92.1999 36.0469 92.5494 34.9261 93.2567 33.9972C93.9641 33.0597 94.9698 32.3438 96.2738 31.8494C97.5778 31.3551 99.1161 31.108 100.889 31.108C103.548 31.108 105.645 31.6662 107.179 32.7827C108.713 33.8906 109.561 35.4162 109.723 37.3594Z" fill="white"/>
<mask id="mask0_3_22" style="mask-type:luminance" maskUnits="userSpaceOnUse" x="17" y="0" width="78" height="78">
<path d="M54.8617 -3.57628e-06L17 39.8935L56.8935 77.7552L94.7552 37.8617L54.8617 -3.57628e-06Z" fill="white"/>
</mask>
<g mask="url(#mask0_3_22)">
<path d="M75.8244 57.8085C56.3791 40.4512 55.4619 40.4781 36.9467 58.8243C54.304 39.3791 54.2772 38.4618 35.9309 19.9467C55.3761 37.304 56.2934 37.2772 74.8085 18.9309C57.4542 38.3789 57.4723 39.2878 75.8244 57.8085Z" fill="white"/>
</g>
</svg>
